<?xml version="1.0" encoding="UTF-8" standalone="no"?><svg xmlns="http://www.w3.org/2000/svg" xmlns:xlink="http://www.w3.org/1999/xlink" contentStyleType="text/css" height="798px" preserveAspectRatio="none" style="width:635px;height:798px;background:#FFFFFF;" version="1.1" viewBox="0 0 635 798" width="635px" zoomAndPan="magnify"><defs/><g><!--MD5=[e6557703c28ec013b8eadf9c41462697]
cluster 構成--><g id="cluster_構成"><path d="M8.5,215 L38.375,215 A3.75,3.75 0 0 1 40.875,217.5 L47.875,238.6094 L625.5,238.6094 A2.5,2.5 0 0 1 628,241.1094 L628,788.5 A2.5,2.5 0 0 1 625.5,791 L8.5,791 A2.5,2.5 0 0 1 6,788.5 L6,217.5 A2.5,2.5 0 0 1 8.5,215 " fill="none" style="stroke:#000000;stroke-width:1.5;"/><line style="stroke:#000000;stroke-width:1.5;" x1="6" x2="47.875" y1="238.6094" y2="238.6094"/><text fill="#000000" font-family="sans-serif" font-size="14" font-weight="bold" lengthAdjust="spacing" textLength="28.875" x="10" y="231.5332">構成</text></g><!--MD5=[ed071be72fb7e181fbc77b38300f4b00]
cluster 環境--><g id="cluster_環境"><path d="M158.5,400 L188.375,400 A3.75,3.75 0 0 1 190.875,402.5 L197.875,423.6094 L481.5,423.6094 A2.5,2.5 0 0 1 484,426.1094 L484,764.5 A2.5,2.5 0 0 1 481.5,767 L158.5,767 A2.5,2.5 0 0 1 156,764.5 L156,402.5 A2.5,2.5 0 0 1 158.5,400 " fill="none" style="stroke:#000000;stroke-width:1.5;"/><line style="stroke:#000000;stroke-width:1.5;" x1="156" x2="197.875" y1="423.6094" y2="423.6094"/><text fill="#000000" font-family="sans-serif" font-size="14" font-weight="bold" lengthAdjust="spacing" textLength="28.875" x="160" y="416.5332">環境</text></g><!--MD5=[593c3805de571ca794a38e03b1677d75]
cluster 機能--><g id="cluster_機能"><path d="M32.5,259 L62.375,259 A3.75,3.75 0 0 1 64.875,261.5 L71.875,282.6094 L601.5,282.6094 A2.5,2.5 0 0 1 604,285.1094 L604,373.5 A2.5,2.5 0 0 1 601.5,376 L32.5,376 A2.5,2.5 0 0 1 30,373.5 L30,261.5 A2.5,2.5 0 0 1 32.5,259 " fill="none" style="stroke:#000000;stroke-width:1.5;"/><line style="stroke:#000000;stroke-width:1.5;" x1="30" x2="71.875" y1="282.6094" y2="282.6094"/><text fill="#000000" font-family="sans-serif" font-size="14" font-weight="bold" lengthAdjust="spacing" textLength="28.875" x="34" y="275.5332">機能</text></g><!--MD5=[04c5534593d3d55038da165bfe529f5c]
cluster 小機能--><g id="cluster_小機能"><path d="M115.5,6 L159.8125,6 A3.75,3.75 0 0 1 162.3125,8.5 L169.3125,29.6094 L514.5,29.6094 A2.5,2.5 0 0 1 517,32.1094 L517,188.5 A2.5,2.5 0 0 1 514.5,191 L115.5,191 A2.5,2.5 0 0 1 113,188.5 L113,8.5 A2.5,2.5 0 0 1 115.5,6 " fill="none" style="stroke:#000000;stroke-width:1.5;"/><line style="stroke:#000000;stroke-width:1.5;" x1="113" x2="169.3125" y1="29.6094" y2="29.6094"/><text fill="#000000" font-family="sans-serif" font-size="14" font-weight="bold" lengthAdjust="spacing" textLength="43.3125" x="117" y="22.5332">小機能</text></g><!--MD5=[b27c5c9af3cea12247b1c4c8d3c78770]
cluster GUI--><g id="cluster_GUI"><path d="M139.5,50 L165.5,50 A3.75,3.75 0 0 1 168,52.5 L175,73.6094 L490.5,73.6094 A2.5,2.5 0 0 1 493,76.1094 L493,164.5 A2.5,2.5 0 0 1 490.5,167 L139.5,167 A2.5,2.5 0 0 1 137,164.5 L137,52.5 A2.5,2.5 0 0 1 139.5,50 " fill="none" style="stroke:#000000;stroke-width:1.5;"/><line style="stroke:#000000;stroke-width:1.5;" x1="137" x2="175" y1="73.6094" y2="73.6094"/><text fill="#000000" font-family="sans-serif" font-size="14" font-weight="bold" lengthAdjust="spacing" textLength="25" x="141" y="66.5332">GUI</text></g><g id="elem_5_3"><rect fill="#90EE90" height="64.8281" style="stroke:#181818;stroke-width:0.5;" width="174" x="233" y="686"/><text fill="#000000" font-family="sans-serif" font-size="14" lengthAdjust="spacing" textLength="28" x="306" y="702.5332">構成</text><line style="stroke:#181818;stroke-width:0.5;" x1="234" x2="406" y1="707.6094" y2="707.6094"/><text fill="#000000" font-family="sans-serif" font-size="14" lengthAdjust="spacing" textLength="48" x="239" y="726.1426">id = 5-3</text><text fill="#000000" font-family="sans-serif" font-size="14" lengthAdjust="spacing" textLength="162" x="239" y="743.752">detail = nodejsを使用する</text></g><g id="elem_5_1"><rect fill="#90EE90" height="64.8281" style="stroke:#181818;stroke-width:0.5;" width="220" x="210" y="561"/><text fill="#000000" font-family="sans-serif" font-size="14" lengthAdjust="spacing" textLength="28" x="306" y="577.5332">構成</text><line style="stroke:#181818;stroke-width:0.5;" x1="211" x2="429" y1="582.6094" y2="582.6094"/><text fill="#000000" font-family="sans-serif" font-size="14" lengthAdjust="spacing" textLength="48" x="216" y="601.1426">id = 5-1</text><text fill="#000000" font-family="sans-serif" font-size="14" lengthAdjust="spacing" textLength="208" x="216" y="618.752">detail = GUIをelectronで実装する</text></g><g id="elem_5_24"><rect fill="#90EE90" height="64.8281" style="stroke:#181818;stroke-width:0.5;" width="295" x="172.5" y="436"/><text fill="#000000" font-family="sans-serif" font-size="14" lengthAdjust="spacing" textLength="28" x="306" y="452.5332">構成</text><line style="stroke:#181818;stroke-width:0.5;" x1="173.5" x2="466.5" y1="457.6094" y2="457.6094"/><text fill="#000000" font-family="sans-serif" font-size="14" lengthAdjust="spacing" textLength="56" x="178.5" y="476.1426">id = 5-24</text><text fill="#000000" font-family="sans-serif" font-size="14" lengthAdjust="spacing" textLength="283" x="178.5" y="493.752">detail = electronレンダラプロセスを実装する</text></g><g id="elem_5_7"><rect fill="#90EE90" height="64.8281" style="stroke:#181818;stroke-width:0.5;" width="197" x="390.5" y="295"/><text fill="#000000" font-family="sans-serif" font-size="14" lengthAdjust="spacing" textLength="28" x="475" y="311.5332">構成</text><line style="stroke:#181818;stroke-width:0.5;" x1="391.5" x2="586.5" y1="316.6094" y2="316.6094"/><text fill="#000000" font-family="sans-serif" font-size="14" lengthAdjust="spacing" textLength="48" x="396.5" y="335.1426">id = 5-7</text><text fill="#000000" font-family="sans-serif" font-size="14" lengthAdjust="spacing" textLength="185" x="396.5" y="352.752">detail = GUIに画像を表示する</text></g><g id="elem_5_8"><rect fill="#90EE90" height="64.8281" style="stroke:#181818;stroke-width:0.5;" width="309" x="46.5" y="295"/><text fill="#000000" font-family="sans-serif" font-size="14" lengthAdjust="spacing" textLength="28" x="187" y="311.5332">構成</text><line style="stroke:#181818;stroke-width:0.5;" x1="47.5" x2="354.5" y1="316.6094" y2="316.6094"/><text fill="#000000" font-family="sans-serif" font-size="14" lengthAdjust="spacing" textLength="48" x="52.5" y="335.1426">id = 5-8</text><text fill="#000000" font-family="sans-serif" font-size="14" lengthAdjust="spacing" textLength="297" x="52.5" y="352.752">detail = GUIに設定用のスライドバーを実装する</text></g><g id="elem_4_10"><rect fill="#90EE90" height="64.8281" style="stroke:#181818;stroke-width:0.5;" width="323" x="153.5" y="86"/><text fill="#000000" font-family="sans-serif" font-size="14" lengthAdjust="spacing" textLength="42" x="294" y="102.5332">小機能</text><line style="stroke:#181818;stroke-width:0.5;" x1="154.5" x2="475.5" y1="107.6094" y2="107.6094"/><text fill="#000000" font-family="sans-serif" font-size="14" lengthAdjust="spacing" textLength="56" x="159.5" y="126.1426">id = 4-10</text><text fill="#000000" font-family="sans-serif" font-size="14" lengthAdjust="spacing" textLength="311" x="159.5" y="143.752">detail = GUIに表示できる画像サイズを変更できる</text></g><!--MD5=[fc317fe41ca6eff0545457d654623905]
reverse link 5_1 to 5_3--><g id="link_5_1_5_3"><path codeLine="12" d="M320,631.46 C320,648.82 320,669.31 320,685.93 " fill="none" id="5_1-backto-5_3" style="stroke:#181818;stroke-width:1.0;"/><polygon fill="#181818" points="320,626.18,316,635.18,320,631.18,324,635.18,320,626.18" style="stroke:#181818;stroke-width:1.0;"/></g><!--MD5=[151220a8faead6bc965b12c371de67a3]
reverse link 5_24 to 5_1--><g id="link_5_24_5_1"><path codeLine="12" d="M320,506.46 C320,523.82 320,544.31 320,560.93 " fill="none" id="5_24-backto-5_1" style="stroke:#181818;stroke-width:1.0;"/><polygon fill="#181818" points="320,501.18,316,510.18,320,506.18,324,510.18,320,501.18" style="stroke:#181818;stroke-width:1.0;"/></g><!--MD5=[c7b0a2958fbb9722bbad7be497fc31b6]
reverse link 5_7 to 5_24--><g id="link_5_7_5_24"><path codeLine="12" d="M446.72,363.28 C419.64,385.55 384.79,414.21 358.49,435.84 " fill="none" id="5_7-backto-5_24" style="stroke:#181818;stroke-width:1.0;"/><polygon fill="#181818" points="450.65,360.04,441.1577,362.6662,446.7879,363.2155,446.2386,368.8457,450.65,360.04" style="stroke:#181818;stroke-width:1.0;"/></g><!--MD5=[e1b301863a870d6a56c79d2b8d9fcce5]
reverse link 5_8 to 5_24--><g id="link_5_8_5_24"><path codeLine="12" d="M231.47,364.09 C250.36,386.15 274.42,414.26 292.69,435.6 " fill="none" id="5_8-backto-5_24" style="stroke:#181818;stroke-width:1.0;"/><polygon fill="#181818" points="228,360.04,230.8377,369.4712,231.261,363.8302,236.902,364.2536,228,360.04" style="stroke:#181818;stroke-width:1.0;"/></g><!--MD5=[f9ee2d6f28b9e17c4ba1ee5822f68d4a]
reverse link 4_10 to 5_7--><g id="link_4_10_5_7"><path codeLine="13" d="M345.35,155.6 C378.45,194.98 430.92,257.41 462.45,294.91 " fill="none" id="4_10-backto-5_7" style="stroke:#181818;stroke-width:1.0;"/><polygon fill="#181818" points="341.81,151.39,344.5334,160.8548,345.025,155.2194,350.6604,155.7109,341.81,151.39" style="stroke:#181818;stroke-width:1.0;"/></g><!--MD5=[cbd1dba6a3e499836bebab2ca3743c71]
reverse link 4_10 to 5_8--><g id="link_4_10_5_8"><path codeLine="14" d="M294.85,156.08 C273.15,195.49 238.97,257.56 218.4,294.91 " fill="none" id="4_10-backto-5_8" style="stroke:#181818;stroke-width:1.0;"/><polygon fill="#181818" points="297.44,151.39,289.6106,157.3649,295.0397,155.7762,296.6285,161.2054,297.44,151.39" style="stroke:#181818;stroke-width:1.0;"/></g><!--MD5=[f4d45297361ab7b91bcf27681b934d24]
@startuml
!include ../l5/l5_7.pu
!include ../l5/l5_8.pu

package "小機能"{
  package "GUI"{
    object "小機能" as 4_10 #LightGreen{
      id = 4-10
      detail = GUIに表示できる画像サイズを変更できる
    }
  }
}

4_10 <- - 5_7
4_10 <- - 5_8
@enduml

@startuml
package "構成"{
  package "環境"{
    object "構成" as 5_3 #LightGreen{
      id = 5-3
      detail = nodejsを使用する
    }
  }
}

package "構成"{
  package "環境"{
    object "構成" as 5_1 #LightGreen{
      id = 5-1
      detail = GUIをelectronで実装する
    }
  }
}

5_1 <- - 5_3

package "構成"{
  package "環境"{
    object "構成" as 5_24 #LightGreen{
      id = 5-24
      detail = electronレンダラプロセスを実装する
    }
  }
}

5_24 <- - 5_1

package "構成"{
  package "機能"{
    object "構成" as 5_7 #LightGreen{
      id = 5-7
      detail = GUIに画像を表示する
    }
  }
}

5_7 <- - 5_24

package "構成"{
  package "機能"{
    object "構成" as 5_8 #LightGreen{
      id = 5-8
      detail = GUIに設定用のスライドバーを実装する
    }
  }
}

5_8 <- - 5_24

package "小機能"{
  package "GUI"{
    object "小機能" as 4_10 #LightGreen{
      id = 4-10
      detail = GUIに表示できる画像サイズを変更できる
    }
  }
}

4_10 <- - 5_7
4_10 <- - 5_8
@enduml

PlantUML version 1.2022.12(Mon Oct 24 03:12:26 JST 2022)
(GPL source distribution)
Java Runtime: Java(TM) SE Runtime Environment
JVM: Java HotSpot(TM) 64-Bit Server VM
Default Encoding: UTF-8
Language: ja
Country: JP
--></g></svg>