<?xml version="1.0" encoding="UTF-8" standalone="no"?><svg xmlns="http://www.w3.org/2000/svg" xmlns:xlink="http://www.w3.org/1999/xlink" contentStyleType="text/css" height="1007px" preserveAspectRatio="none" style="width:635px;height:1007px;background:#FFFFFF;" version="1.1" viewBox="0 0 635 1007" width="635px" zoomAndPan="magnify"><defs/><g><!--MD5=[e6557703c28ec013b8eadf9c41462697]
cluster 構成--><g id="cluster_構成"><path d="M8.5,424 L38.375,424 A3.75,3.75 0 0 1 40.875,426.5 L47.875,447.6094 L625.5,447.6094 A2.5,2.5 0 0 1 628,450.1094 L628,997.5 A2.5,2.5 0 0 1 625.5,1000 L8.5,1000 A2.5,2.5 0 0 1 6,997.5 L6,426.5 A2.5,2.5 0 0 1 8.5,424 " fill="none" style="stroke:#000000;stroke-width:1.5;"/><line style="stroke:#000000;stroke-width:1.5;" x1="6" x2="47.875" y1="447.6094" y2="447.6094"/><text fill="#000000" font-family="sans-serif" font-size="14" font-weight="bold" lengthAdjust="spacing" textLength="28.875" x="10" y="440.5332">構成</text></g><!--MD5=[ed071be72fb7e181fbc77b38300f4b00]
cluster 環境--><g id="cluster_環境"><path d="M158.5,609 L188.375,609 A3.75,3.75 0 0 1 190.875,611.5 L197.875,632.6094 L481.5,632.6094 A2.5,2.5 0 0 1 484,635.1094 L484,973.5 A2.5,2.5 0 0 1 481.5,976 L158.5,976 A2.5,2.5 0 0 1 156,973.5 L156,611.5 A2.5,2.5 0 0 1 158.5,609 " fill="none" style="stroke:#000000;stroke-width:1.5;"/><line style="stroke:#000000;stroke-width:1.5;" x1="156" x2="197.875" y1="632.6094" y2="632.6094"/><text fill="#000000" font-family="sans-serif" font-size="14" font-weight="bold" lengthAdjust="spacing" textLength="28.875" x="160" y="625.5332">環境</text></g><!--MD5=[593c3805de571ca794a38e03b1677d75]
cluster 機能--><g id="cluster_機能"><path d="M32.5,468 L62.375,468 A3.75,3.75 0 0 1 64.875,470.5 L71.875,491.6094 L601.5,491.6094 A2.5,2.5 0 0 1 604,494.1094 L604,582.5 A2.5,2.5 0 0 1 601.5,585 L32.5,585 A2.5,2.5 0 0 1 30,582.5 L30,470.5 A2.5,2.5 0 0 1 32.5,468 " fill="none" style="stroke:#000000;stroke-width:1.5;"/><line style="stroke:#000000;stroke-width:1.5;" x1="30" x2="71.875" y1="491.6094" y2="491.6094"/><text fill="#000000" font-family="sans-serif" font-size="14" font-weight="bold" lengthAdjust="spacing" textLength="28.875" x="34" y="484.5332">機能</text></g><!--MD5=[04c5534593d3d55038da165bfe529f5c]
cluster 小機能--><g id="cluster_小機能"><path d="M115.5,215 L159.8125,215 A3.75,3.75 0 0 1 162.3125,217.5 L169.3125,238.6094 L514.5,238.6094 A2.5,2.5 0 0 1 517,241.1094 L517,397.5 A2.5,2.5 0 0 1 514.5,400 L115.5,400 A2.5,2.5 0 0 1 113,397.5 L113,217.5 A2.5,2.5 0 0 1 115.5,215 " fill="none" style="stroke:#000000;stroke-width:1.5;"/><line style="stroke:#000000;stroke-width:1.5;" x1="113" x2="169.3125" y1="238.6094" y2="238.6094"/><text fill="#000000" font-family="sans-serif" font-size="14" font-weight="bold" lengthAdjust="spacing" textLength="43.3125" x="117" y="231.5332">小機能</text></g><!--MD5=[b27c5c9af3cea12247b1c4c8d3c78770]
cluster GUI--><g id="cluster_GUI"><path d="M139.5,259 L165.5,259 A3.75,3.75 0 0 1 168,261.5 L175,282.6094 L490.5,282.6094 A2.5,2.5 0 0 1 493,285.1094 L493,373.5 A2.5,2.5 0 0 1 490.5,376 L139.5,376 A2.5,2.5 0 0 1 137,373.5 L137,261.5 A2.5,2.5 0 0 1 139.5,259 " fill="none" style="stroke:#000000;stroke-width:1.5;"/><line style="stroke:#000000;stroke-width:1.5;" x1="137" x2="175" y1="282.6094" y2="282.6094"/><text fill="#000000" font-family="sans-serif" font-size="14" font-weight="bold" lengthAdjust="spacing" textLength="25" x="141" y="275.5332">GUI</text></g><!--MD5=[cd8a6d6b6ceaae3d861deb9820030cfc]
cluster 中機能--><g id="cluster_中機能"><path d="M134.5,6 L178.8125,6 A3.75,3.75 0 0 1 181.3125,8.5 L188.3125,29.6094 L495.5,29.6094 A2.5,2.5 0 0 1 498,32.1094 L498,188.5 A2.5,2.5 0 0 1 495.5,191 L134.5,191 A2.5,2.5 0 0 1 132,188.5 L132,8.5 A2.5,2.5 0 0 1 134.5,6 " fill="none" style="stroke:#000000;stroke-width:1.5;"/><line style="stroke:#000000;stroke-width:1.5;" x1="132" x2="188.3125" y1="29.6094" y2="29.6094"/><text fill="#000000" font-family="sans-serif" font-size="14" font-weight="bold" lengthAdjust="spacing" textLength="43.3125" x="136" y="22.5332">中機能</text></g><!--MD5=[ead2d831585ee15aa2f35daa9927ec5d]
cluster 共通--><g id="cluster_共通"><path d="M158.5,50 L188.375,50 A3.75,3.75 0 0 1 190.875,52.5 L197.875,73.6094 L471.5,73.6094 A2.5,2.5 0 0 1 474,76.1094 L474,164.5 A2.5,2.5 0 0 1 471.5,167 L158.5,167 A2.5,2.5 0 0 1 156,164.5 L156,52.5 A2.5,2.5 0 0 1 158.5,50 " fill="none" style="stroke:#000000;stroke-width:1.5;"/><line style="stroke:#000000;stroke-width:1.5;" x1="156" x2="197.875" y1="73.6094" y2="73.6094"/><text fill="#000000" font-family="sans-serif" font-size="14" font-weight="bold" lengthAdjust="spacing" textLength="28.875" x="160" y="66.5332">共通</text></g><g id="elem_5_3"><rect fill="#90EE90" height="64.8281" style="stroke:#181818;stroke-width:0.5;" width="174" x="233" y="895"/><text fill="#000000" font-family="sans-serif" font-size="14" lengthAdjust="spacing" textLength="28" x="306" y="911.5332">構成</text><line style="stroke:#181818;stroke-width:0.5;" x1="234" x2="406" y1="916.6094" y2="916.6094"/><text fill="#000000" font-family="sans-serif" font-size="14" lengthAdjust="spacing" textLength="48" x="239" y="935.1426">id = 5-3</text><text fill="#000000" font-family="sans-serif" font-size="14" lengthAdjust="spacing" textLength="162" x="239" y="952.752">detail = nodejsを使用する</text></g><g id="elem_5_1"><rect fill="#90EE90" height="64.8281" style="stroke:#181818;stroke-width:0.5;" width="220" x="210" y="770"/><text fill="#000000" font-family="sans-serif" font-size="14" lengthAdjust="spacing" textLength="28" x="306" y="786.5332">構成</text><line style="stroke:#181818;stroke-width:0.5;" x1="211" x2="429" y1="791.6094" y2="791.6094"/><text fill="#000000" font-family="sans-serif" font-size="14" lengthAdjust="spacing" textLength="48" x="216" y="810.1426">id = 5-1</text><text fill="#000000" font-family="sans-serif" font-size="14" lengthAdjust="spacing" textLength="208" x="216" y="827.752">detail = GUIをelectronで実装する</text></g><g id="elem_5_24"><rect fill="#90EE90" height="64.8281" style="stroke:#181818;stroke-width:0.5;" width="295" x="172.5" y="645"/><text fill="#000000" font-family="sans-serif" font-size="14" lengthAdjust="spacing" textLength="28" x="306" y="661.5332">構成</text><line style="stroke:#181818;stroke-width:0.5;" x1="173.5" x2="466.5" y1="666.6094" y2="666.6094"/><text fill="#000000" font-family="sans-serif" font-size="14" lengthAdjust="spacing" textLength="56" x="178.5" y="685.1426">id = 5-24</text><text fill="#000000" font-family="sans-serif" font-size="14" lengthAdjust="spacing" textLength="283" x="178.5" y="702.752">detail = electronレンダラプロセスを実装する</text></g><g id="elem_5_7"><rect fill="#90EE90" height="64.8281" style="stroke:#181818;stroke-width:0.5;" width="197" x="390.5" y="504"/><text fill="#000000" font-family="sans-serif" font-size="14" lengthAdjust="spacing" textLength="28" x="475" y="520.5332">構成</text><line style="stroke:#181818;stroke-width:0.5;" x1="391.5" x2="586.5" y1="525.6094" y2="525.6094"/><text fill="#000000" font-family="sans-serif" font-size="14" lengthAdjust="spacing" textLength="48" x="396.5" y="544.1426">id = 5-7</text><text fill="#000000" font-family="sans-serif" font-size="14" lengthAdjust="spacing" textLength="185" x="396.5" y="561.752">detail = GUIに画像を表示する</text></g><g id="elem_5_8"><rect fill="#90EE90" height="64.8281" style="stroke:#181818;stroke-width:0.5;" width="309" x="46.5" y="504"/><text fill="#000000" font-family="sans-serif" font-size="14" lengthAdjust="spacing" textLength="28" x="187" y="520.5332">構成</text><line style="stroke:#181818;stroke-width:0.5;" x1="47.5" x2="354.5" y1="525.6094" y2="525.6094"/><text fill="#000000" font-family="sans-serif" font-size="14" lengthAdjust="spacing" textLength="48" x="52.5" y="544.1426">id = 5-8</text><text fill="#000000" font-family="sans-serif" font-size="14" lengthAdjust="spacing" textLength="297" x="52.5" y="561.752">detail = GUIに設定用のスライドバーを実装する</text></g><g id="elem_4_10"><rect fill="#90EE90" height="64.8281" style="stroke:#181818;stroke-width:0.5;" width="323" x="153.5" y="295"/><text fill="#000000" font-family="sans-serif" font-size="14" lengthAdjust="spacing" textLength="42" x="294" y="311.5332">小機能</text><line style="stroke:#181818;stroke-width:0.5;" x1="154.5" x2="475.5" y1="316.6094" y2="316.6094"/><text fill="#000000" font-family="sans-serif" font-size="14" lengthAdjust="spacing" textLength="56" x="159.5" y="335.1426">id = 4-10</text><text fill="#000000" font-family="sans-serif" font-size="14" lengthAdjust="spacing" textLength="311" x="159.5" y="352.752">detail = GUIに表示できる画像サイズを変更できる</text></g><g id="elem_3_10"><rect fill="#90EE90" height="64.8281" style="stroke:#181818;stroke-width:0.5;" width="286" x="172" y="86"/><text fill="#000000" font-family="sans-serif" font-size="14" lengthAdjust="spacing" textLength="42" x="294" y="102.5332">中機能</text><line style="stroke:#181818;stroke-width:0.5;" x1="173" x2="457" y1="107.6094" y2="107.6094"/><text fill="#000000" font-family="sans-serif" font-size="14" lengthAdjust="spacing" textLength="56" x="178" y="126.1426">id = 3-10</text><text fill="#000000" font-family="sans-serif" font-size="14" lengthAdjust="spacing" textLength="274" x="178" y="143.752">detail = 画像一覧の表示サイズを変更できる</text></g><!--MD5=[fc317fe41ca6eff0545457d654623905]
reverse link 5_1 to 5_3--><g id="link_5_1_5_3"><path codeLine="12" d="M320,840.46 C320,857.82 320,878.31 320,894.93 " fill="none" id="5_1-backto-5_3" style="stroke:#181818;stroke-width:1.0;"/><polygon fill="#181818" points="320,835.18,316,844.18,320,840.18,324,844.18,320,835.18" style="stroke:#181818;stroke-width:1.0;"/></g><!--MD5=[151220a8faead6bc965b12c371de67a3]
reverse link 5_24 to 5_1--><g id="link_5_24_5_1"><path codeLine="12" d="M320,715.46 C320,732.82 320,753.31 320,769.93 " fill="none" id="5_24-backto-5_1" style="stroke:#181818;stroke-width:1.0;"/><polygon fill="#181818" points="320,710.18,316,719.18,320,715.18,324,719.18,320,710.18" style="stroke:#181818;stroke-width:1.0;"/></g><!--MD5=[c7b0a2958fbb9722bbad7be497fc31b6]
reverse link 5_7 to 5_24--><g id="link_5_7_5_24"><path codeLine="12" d="M446.72,572.28 C419.64,594.55 384.79,623.21 358.49,644.84 " fill="none" id="5_7-backto-5_24" style="stroke:#181818;stroke-width:1.0;"/><polygon fill="#181818" points="450.65,569.04,441.1577,571.6662,446.7879,572.2155,446.2386,577.8457,450.65,569.04" style="stroke:#181818;stroke-width:1.0;"/></g><!--MD5=[e1b301863a870d6a56c79d2b8d9fcce5]
reverse link 5_8 to 5_24--><g id="link_5_8_5_24"><path codeLine="12" d="M231.47,573.09 C250.36,595.15 274.42,623.26 292.69,644.6 " fill="none" id="5_8-backto-5_24" style="stroke:#181818;stroke-width:1.0;"/><polygon fill="#181818" points="228,569.04,230.8377,578.4712,231.261,572.8302,236.902,573.2536,228,569.04" style="stroke:#181818;stroke-width:1.0;"/></g><!--MD5=[f9ee2d6f28b9e17c4ba1ee5822f68d4a]
reverse link 4_10 to 5_7--><g id="link_4_10_5_7"><path codeLine="13" d="M345.35,364.6 C378.45,403.98 430.92,466.41 462.45,503.91 " fill="none" id="4_10-backto-5_7" style="stroke:#181818;stroke-width:1.0;"/><polygon fill="#181818" points="341.81,360.39,344.5334,369.8548,345.025,364.2194,350.6604,364.7109,341.81,360.39" style="stroke:#181818;stroke-width:1.0;"/></g><!--MD5=[cbd1dba6a3e499836bebab2ca3743c71]
reverse link 4_10 to 5_8--><g id="link_4_10_5_8"><path codeLine="14" d="M294.85,365.08 C273.15,404.49 238.97,466.56 218.4,503.91 " fill="none" id="4_10-backto-5_8" style="stroke:#181818;stroke-width:1.0;"/><polygon fill="#181818" points="297.44,360.39,289.6106,366.3649,295.0397,364.7762,296.6285,370.2054,297.44,360.39" style="stroke:#181818;stroke-width:1.0;"/></g><!--MD5=[d9952debd2ae64c6da163e81896efa2b]
reverse link 3_10 to 4_10--><g id="link_3_10_4_10"><path codeLine="12" d="M315,156.56 C315,195.99 315,257.71 315,294.91 " fill="none" id="3_10-backto-4_10" style="stroke:#181818;stroke-width:1.0;"/><polygon fill="#181818" points="315,151.39,311,160.39,315,156.39,319,160.39,315,151.39" style="stroke:#181818;stroke-width:1.0;"/></g><!--MD5=[d982b6a01a0a86f87532b1481c7cc943]
@startuml
!include ../l4/l4_10.pu

package "中機能"{
  package "共通"{
    object "中機能" as 3_10 #LightGreen{
      id = 3-10
      detail = 画像一覧の表示サイズを変更できる
    }
  }
}

3_10 <- - 4_10
@enduml

@startuml
package "構成"{
  package "環境"{
    object "構成" as 5_3 #LightGreen{
      id = 5-3
      detail = nodejsを使用する
    }
  }
}

package "構成"{
  package "環境"{
    object "構成" as 5_1 #LightGreen{
      id = 5-1
      detail = GUIをelectronで実装する
    }
  }
}

5_1 <- - 5_3

package "構成"{
  package "環境"{
    object "構成" as 5_24 #LightGreen{
      id = 5-24
      detail = electronレンダラプロセスを実装する
    }
  }
}

5_24 <- - 5_1

package "構成"{
  package "機能"{
    object "構成" as 5_7 #LightGreen{
      id = 5-7
      detail = GUIに画像を表示する
    }
  }
}

5_7 <- - 5_24

package "構成"{
  package "機能"{
    object "構成" as 5_8 #LightGreen{
      id = 5-8
      detail = GUIに設定用のスライドバーを実装する
    }
  }
}

5_8 <- - 5_24

package "小機能"{
  package "GUI"{
    object "小機能" as 4_10 #LightGreen{
      id = 4-10
      detail = GUIに表示できる画像サイズを変更できる
    }
  }
}

4_10 <- - 5_7
4_10 <- - 5_8

package "中機能"{
  package "共通"{
    object "中機能" as 3_10 #LightGreen{
      id = 3-10
      detail = 画像一覧の表示サイズを変更できる
    }
  }
}

3_10 <- - 4_10
@enduml

PlantUML version 1.2022.12(Mon Oct 24 03:12:26 JST 2022)
(GPL source distribution)
Java Runtime: Java(TM) SE Runtime Environment
JVM: Java HotSpot(TM) 64-Bit Server VM
Default Encoding: UTF-8
Language: ja
Country: JP
--></g></svg>