<?xml version="1.0" encoding="UTF-8" standalone="no"?><svg xmlns="http://www.w3.org/2000/svg" xmlns:xlink="http://www.w3.org/1999/xlink" contentStyleType="text/css" height="1007px" preserveAspectRatio="none" style="width:1408px;height:1007px;background:#FFFFFF;" version="1.1" viewBox="0 0 1408 1007" width="1408px" zoomAndPan="magnify"><defs/><g><!--MD5=[e6557703c28ec013b8eadf9c41462697]
cluster 構成--><g id="cluster_構成"><path d="M8.5,424 L38.375,424 A3.75,3.75 0 0 1 40.875,426.5 L47.875,447.6094 L1398.5,447.6094 A2.5,2.5 0 0 1 1401,450.1094 L1401,997.5 A2.5,2.5 0 0 1 1398.5,1000 L8.5,1000 A2.5,2.5 0 0 1 6,997.5 L6,426.5 A2.5,2.5 0 0 1 8.5,424 " fill="none" style="stroke:#000000;stroke-width:1.5;"/><line style="stroke:#000000;stroke-width:1.5;" x1="6" x2="47.875" y1="447.6094" y2="447.6094"/><text fill="#000000" font-family="sans-serif" font-size="14" font-weight="bold" lengthAdjust="spacing" textLength="28.875" x="10" y="440.5332">構成</text></g><!--MD5=[ed071be72fb7e181fbc77b38300f4b00]
cluster 環境--><g id="cluster_環境"><path d="M493.5,609 L523.375,609 A3.75,3.75 0 0 1 525.875,611.5 L532.875,632.6094 L816.5,632.6094 A2.5,2.5 0 0 1 819,635.1094 L819,973.5 A2.5,2.5 0 0 1 816.5,976 L493.5,976 A2.5,2.5 0 0 1 491,973.5 L491,611.5 A2.5,2.5 0 0 1 493.5,609 " fill="none" style="stroke:#000000;stroke-width:1.5;"/><line style="stroke:#000000;stroke-width:1.5;" x1="491" x2="532.875" y1="632.6094" y2="632.6094"/><text fill="#000000" font-family="sans-serif" font-size="14" font-weight="bold" lengthAdjust="spacing" textLength="28.875" x="495" y="625.5332">環境</text></g><!--MD5=[593c3805de571ca794a38e03b1677d75]
cluster 機能--><g id="cluster_機能"><path d="M32.5,468 L62.375,468 A3.75,3.75 0 0 1 64.875,470.5 L71.875,491.6094 L1374.5,491.6094 A2.5,2.5 0 0 1 1377,494.1094 L1377,582.5 A2.5,2.5 0 0 1 1374.5,585 L32.5,585 A2.5,2.5 0 0 1 30,582.5 L30,470.5 A2.5,2.5 0 0 1 32.5,468 " fill="none" style="stroke:#000000;stroke-width:1.5;"/><line style="stroke:#000000;stroke-width:1.5;" x1="30" x2="71.875" y1="491.6094" y2="491.6094"/><text fill="#000000" font-family="sans-serif" font-size="14" font-weight="bold" lengthAdjust="spacing" textLength="28.875" x="34" y="484.5332">機能</text></g><!--MD5=[04c5534593d3d55038da165bfe529f5c]
cluster 小機能--><g id="cluster_小機能"><path d="M318.5,215 L362.8125,215 A3.75,3.75 0 0 1 365.3125,217.5 L372.3125,238.6094 L1154.5,238.6094 A2.5,2.5 0 0 1 1157,241.1094 L1157,397.5 A2.5,2.5 0 0 1 1154.5,400 L318.5,400 A2.5,2.5 0 0 1 316,397.5 L316,217.5 A2.5,2.5 0 0 1 318.5,215 " fill="none" style="stroke:#000000;stroke-width:1.5;"/><line style="stroke:#000000;stroke-width:1.5;" x1="316" x2="372.3125" y1="238.6094" y2="238.6094"/><text fill="#000000" font-family="sans-serif" font-size="14" font-weight="bold" lengthAdjust="spacing" textLength="43.3125" x="320" y="231.5332">小機能</text></g><!--MD5=[b27c5c9af3cea12247b1c4c8d3c78770]
cluster GUI--><g id="cluster_GUI"><path d="M342.5,259 L368.5,259 A3.75,3.75 0 0 1 371,261.5 L378,282.6094 L1130.5,282.6094 A2.5,2.5 0 0 1 1133,285.1094 L1133,373.5 A2.5,2.5 0 0 1 1130.5,376 L342.5,376 A2.5,2.5 0 0 1 340,373.5 L340,261.5 A2.5,2.5 0 0 1 342.5,259 " fill="none" style="stroke:#000000;stroke-width:1.5;"/><line style="stroke:#000000;stroke-width:1.5;" x1="340" x2="378" y1="282.6094" y2="282.6094"/><text fill="#000000" font-family="sans-serif" font-size="14" font-weight="bold" lengthAdjust="spacing" textLength="25" x="344" y="275.5332">GUI</text></g><!--MD5=[cd8a6d6b6ceaae3d861deb9820030cfc]
cluster 中機能--><g id="cluster_中機能"><path d="M594.5,6 L638.8125,6 A3.75,3.75 0 0 1 641.3125,8.5 L648.3125,29.6094 L885.5,29.6094 A2.5,2.5 0 0 1 888,32.1094 L888,188.5 A2.5,2.5 0 0 1 885.5,191 L594.5,191 A2.5,2.5 0 0 1 592,188.5 L592,8.5 A2.5,2.5 0 0 1 594.5,6 " fill="none" style="stroke:#000000;stroke-width:1.5;"/><line style="stroke:#000000;stroke-width:1.5;" x1="592" x2="648.3125" y1="29.6094" y2="29.6094"/><text fill="#000000" font-family="sans-serif" font-size="14" font-weight="bold" lengthAdjust="spacing" textLength="43.3125" x="596" y="22.5332">中機能</text></g><!--MD5=[b300f6b1ec8eed363d27ec57bc54e477]
cluster 画像ビュワー--><g id="cluster_画像ビュワー"><path d="M618.5,50 L706.125,50 A3.75,3.75 0 0 1 708.625,52.5 L715.625,73.6094 L861.5,73.6094 A2.5,2.5 0 0 1 864,76.1094 L864,164.5 A2.5,2.5 0 0 1 861.5,167 L618.5,167 A2.5,2.5 0 0 1 616,164.5 L616,52.5 A2.5,2.5 0 0 1 618.5,50 " fill="none" style="stroke:#000000;stroke-width:1.5;"/><line style="stroke:#000000;stroke-width:1.5;" x1="616" x2="715.625" y1="73.6094" y2="73.6094"/><text fill="#000000" font-family="sans-serif" font-size="14" font-weight="bold" lengthAdjust="spacing" textLength="86.625" x="620" y="66.5332">画像ビュワー</text></g><g id="elem_5_3"><rect fill="#90EE90" height="64.8281" style="stroke:#181818;stroke-width:0.5;" width="174" x="629" y="895"/><text fill="#000000" font-family="sans-serif" font-size="14" lengthAdjust="spacing" textLength="28" x="702" y="911.5332">構成</text><line style="stroke:#181818;stroke-width:0.5;" x1="630" x2="802" y1="916.6094" y2="916.6094"/><text fill="#000000" font-family="sans-serif" font-size="14" lengthAdjust="spacing" textLength="48" x="635" y="935.1426">id = 5-3</text><text fill="#000000" font-family="sans-serif" font-size="14" lengthAdjust="spacing" textLength="162" x="635" y="952.752">detail = nodejsを使用する</text></g><g id="elem_5_1"><rect fill="#90EE90" height="64.8281" style="stroke:#181818;stroke-width:0.5;" width="220" x="564" y="770"/><text fill="#000000" font-family="sans-serif" font-size="14" lengthAdjust="spacing" textLength="28" x="660" y="786.5332">構成</text><line style="stroke:#181818;stroke-width:0.5;" x1="565" x2="783" y1="791.6094" y2="791.6094"/><text fill="#000000" font-family="sans-serif" font-size="14" lengthAdjust="spacing" textLength="48" x="570" y="810.1426">id = 5-1</text><text fill="#000000" font-family="sans-serif" font-size="14" lengthAdjust="spacing" textLength="208" x="570" y="827.752">detail = GUIをelectronで実装する</text></g><g id="elem_5_24"><rect fill="#90EE90" height="64.8281" style="stroke:#181818;stroke-width:0.5;" width="295" x="507.5" y="645"/><text fill="#000000" font-family="sans-serif" font-size="14" lengthAdjust="spacing" textLength="28" x="641" y="661.5332">構成</text><line style="stroke:#181818;stroke-width:0.5;" x1="508.5" x2="801.5" y1="666.6094" y2="666.6094"/><text fill="#000000" font-family="sans-serif" font-size="14" lengthAdjust="spacing" textLength="56" x="513.5" y="685.1426">id = 5-24</text><text fill="#000000" font-family="sans-serif" font-size="14" lengthAdjust="spacing" textLength="283" x="513.5" y="702.752">detail = electronレンダラプロセスを実装する</text></g><g id="elem_5_9"><rect fill="#90EE90" height="64.8281" style="stroke:#181818;stroke-width:0.5;" width="281" x="493.5" y="504"/><text fill="#000000" font-family="sans-serif" font-size="14" lengthAdjust="spacing" textLength="28" x="620" y="520.5332">構成</text><line style="stroke:#181818;stroke-width:0.5;" x1="494.5" x2="773.5" y1="525.6094" y2="525.6094"/><text fill="#000000" font-family="sans-serif" font-size="14" lengthAdjust="spacing" textLength="48" x="499.5" y="544.1426">id = 5-9</text><text fill="#000000" font-family="sans-serif" font-size="14" lengthAdjust="spacing" textLength="269" x="499.5" y="561.752">detail = GUIにローディング画面を表示する</text></g><g id="elem_5_20"><rect fill="#90EE90" height="64.8281" style="stroke:#181818;stroke-width:0.5;" width="412" x="46" y="504"/><text fill="#000000" font-family="sans-serif" font-size="14" lengthAdjust="spacing" textLength="28" x="238" y="520.5332">構成</text><line style="stroke:#181818;stroke-width:0.5;" x1="47" x2="457" y1="525.6094" y2="525.6094"/><text fill="#000000" font-family="sans-serif" font-size="14" lengthAdjust="spacing" textLength="56" x="52" y="544.1426">id = 5-20</text><text fill="#000000" font-family="sans-serif" font-size="14" lengthAdjust="spacing" textLength="400" x="52" y="561.752">detail = 文字列配列から特定文字列が含まれる文字列を抽出する</text></g><g id="elem_5_21"><rect fill="#F1F1F1" height="64.8281" style="stroke:#181818;stroke-width:0.5;" width="258" x="1103" y="504"/><text fill="#000000" font-family="sans-serif" font-size="14" lengthAdjust="spacing" textLength="28" x="1218" y="520.5332">構成</text><line style="stroke:#181818;stroke-width:0.5;" x1="1104" x2="1360" y1="525.6094" y2="525.6094"/><text fill="#000000" font-family="sans-serif" font-size="14" lengthAdjust="spacing" textLength="56" x="1109" y="544.1426">id = 5-21</text><text fill="#000000" font-family="sans-serif" font-size="14" lengthAdjust="spacing" textLength="246" x="1109" y="561.752">detail = 文字列配列を昇順でソートする</text></g><g id="elem_5_22"><rect fill="#F1F1F1" height="64.8281" style="stroke:#181818;stroke-width:0.5;" width="258" x="810" y="504"/><text fill="#000000" font-family="sans-serif" font-size="14" lengthAdjust="spacing" textLength="28" x="925" y="520.5332">構成</text><line style="stroke:#181818;stroke-width:0.5;" x1="811" x2="1067" y1="525.6094" y2="525.6094"/><text fill="#000000" font-family="sans-serif" font-size="14" lengthAdjust="spacing" textLength="56" x="816" y="544.1426">id = 5-22</text><text fill="#000000" font-family="sans-serif" font-size="14" lengthAdjust="spacing" textLength="246" x="816" y="561.752">detail = 文字列配列を降順でソートする</text></g><g id="elem_4_8"><rect fill="#90EE90" height="64.8281" style="stroke:#181818;stroke-width:0.5;" width="370" x="356" y="295"/><text fill="#000000" font-family="sans-serif" font-size="14" lengthAdjust="spacing" textLength="42" x="520" y="311.5332">小機能</text><line style="stroke:#181818;stroke-width:0.5;" x1="357" x2="725" y1="316.6094" y2="316.6094"/><text fill="#000000" font-family="sans-serif" font-size="14" lengthAdjust="spacing" textLength="48" x="362" y="335.1426">id = 4-8</text><text fill="#000000" font-family="sans-serif" font-size="14" lengthAdjust="spacing" textLength="358" x="362" y="352.752">detail = ディレクトリパス階層でフィルタして表示できる</text></g><g id="elem_4_9"><rect fill="#F1F1F1" height="64.8281" style="stroke:#181818;stroke-width:0.5;" width="356" x="761" y="295"/><text fill="#000000" font-family="sans-serif" font-size="14" lengthAdjust="spacing" textLength="42" x="918" y="311.5332">小機能</text><line style="stroke:#181818;stroke-width:0.5;" x1="762" x2="1116" y1="316.6094" y2="316.6094"/><text fill="#000000" font-family="sans-serif" font-size="14" lengthAdjust="spacing" textLength="48" x="767" y="335.1426">id = 4-9</text><text fill="#000000" font-family="sans-serif" font-size="14" lengthAdjust="spacing" textLength="344" x="767" y="352.752">detail = ディレクトリパス階層でソートして表示できる</text></g><g id="elem_3_9"><rect fill="#FF0000" height="64.8281" style="stroke:#181818;stroke-width:0.5;" width="216" x="632" y="86"/><text fill="#000000" font-family="sans-serif" font-size="14" lengthAdjust="spacing" textLength="42" x="719" y="102.5332">中機能</text><line style="stroke:#181818;stroke-width:0.5;" x1="633" x2="847" y1="107.6094" y2="107.6094"/><text fill="#000000" font-family="sans-serif" font-size="14" lengthAdjust="spacing" textLength="48" x="638" y="126.1426">id = 3-9</text><text fill="#000000" font-family="sans-serif" font-size="14" lengthAdjust="spacing" textLength="204" x="638" y="143.752">detail = ディレクトリ表示モード</text></g><!--MD5=[fc317fe41ca6eff0545457d654623905]
reverse link 5_1 to 5_3--><g id="link_5_1_5_3"><path codeLine="12" d="M686.47,840.01 C692.43,857.47 699.49,878.16 705.22,894.93 " fill="none" id="5_1-backto-5_3" style="stroke:#181818;stroke-width:1.0;"/><polygon fill="#181818" points="684.82,835.18,683.9422,844.9897,686.4354,839.9119,691.5132,842.405,684.82,835.18" style="stroke:#181818;stroke-width:1.0;"/></g><!--MD5=[151220a8faead6bc965b12c371de67a3]
reverse link 5_24 to 5_1--><g id="link_5_24_5_1"><path codeLine="12" d="M660.71,715.46 C663.39,732.82 666.56,753.31 669.12,769.93 " fill="none" id="5_24-backto-5_1" style="stroke:#181818;stroke-width:1.0;"/><polygon fill="#181818" points="659.89,710.18,657.2988,719.6819,660.6471,715.1224,665.2066,718.4706,659.89,710.18" style="stroke:#181818;stroke-width:1.0;"/></g><!--MD5=[a8e17c9805a4789bf313314debed56e7]
reverse link 5_9 to 5_24--><g id="link_5_9_5_24"><path codeLine="12" d="M639.54,574.19 C642.85,596.09 647.01,623.62 650.18,644.6 " fill="none" id="5_9-backto-5_24" style="stroke:#181818;stroke-width:1.0;"/><polygon fill="#181818" points="638.77,569.04,636.1788,578.5419,639.5271,573.9824,644.0866,577.3306,638.77,569.04" style="stroke:#181818;stroke-width:1.0;"/></g><!--MD5=[b34e09530f9ad7bc2abe238bc2a6615f]
reverse link 5_20 to 5_3--><g id="link_5_20_5_3"><path codeLine="12" d="M363.96,570.36 C399.47,579.39 439.1,588.06 476,593 C485.47,594.27 813.32,594.16 820,601 C892.89,675.61 847.25,741.02 802,835 C791.03,857.79 772.34,878.71 755.19,894.78 " fill="none" id="5_20-backto-5_3" style="stroke:#181818;stroke-width:1.0;"/><polygon fill="#181818" points="358.75,569.02,366.4732,575.1317,363.5931,570.2629,368.4618,567.3828,358.75,569.02" style="stroke:#181818;stroke-width:1.0;"/></g><!--MD5=[80a1fe93c011ff0b267441e8f3840484]
reverse link 4_8 to 5_9--><g id="link_4_8_5_9"><path codeLine="13" d="M557.43,365.08 C575.14,404.49 603.03,466.56 619.81,503.91 " fill="none" id="4_8-backto-5_9" style="stroke:#181818;stroke-width:1.0;"/><polygon fill="#181818" points="555.33,360.39,555.3871,370.2387,557.3872,364.9472,562.6787,366.9472,555.33,360.39" style="stroke:#181818;stroke-width:1.0;"/></g><!--MD5=[03af91c7a0c034a5129d43fcfffb9c5b]
reverse link 4_8 to 5_20--><g id="link_4_8_5_20"><path codeLine="14" d="M492.58,363.18 C437.76,402.45 349.21,465.87 296.2,503.84 " fill="none" id="4_8-backto-5_20" style="stroke:#181818;stroke-width:1.0;"/><polygon fill="#181818" points="496.79,360.16,487.1434,362.1458,492.7242,363.0702,491.7998,368.651,496.79,360.16" style="stroke:#181818;stroke-width:1.0;"/></g><!--MD5=[8550105c58fb17cd6855d021643ff01a]
reverse link 5_21 to 5_3--><g id="link_5_21_5_3"><path codeLine="12" d="M1194.28,572.5 C1130.82,630.55 997.47,748.86 874,835 C842.8,856.76 806.14,878.23 775.98,894.89 " fill="none" id="5_21-backto-5_3" style="stroke:#181818;stroke-width:1.0;"/><polygon fill="#181818" points="1197.99,569.11,1188.65,572.2347,1194.3013,572.4854,1194.0506,578.1367,1197.99,569.11" style="stroke:#181818;stroke-width:1.0;"/></g><!--MD5=[9cb7a211914e1ae88bd677a36200536f]
reverse link 5_22 to 5_3--><g id="link_5_22_5_3"><path codeLine="12" d="M935.53,574.44 C928.3,634.35 907.06,754.13 848,835 C830.08,859.55 803.48,879.78 778.86,894.92 " fill="none" id="5_22-backto-5_3" style="stroke:#181818;stroke-width:1.0;"/><polygon fill="#181818" points="936.15,569.19,931.1216,577.6585,935.5633,574.1555,939.0663,578.5972,936.15,569.19" style="stroke:#181818;stroke-width:1.0;"/></g><!--MD5=[5b2260c6d8b18b71a2453fec3d3e9cbb]
reverse link 4_9 to 5_9--><g id="link_4_9_5_9"><path codeLine="14" d="M878.46,362.87 C851.85,378.46 820.47,397.52 793,416 C751.17,444.14 705.34,479.05 673.67,503.86 " fill="none" id="4_9-backto-5_9" style="stroke:#181818;stroke-width:1.0;"/><polygon fill="#181818" points="883.03,360.19,873.2427,361.2899,878.7163,362.7182,877.2879,368.1918,883.03,360.19" style="stroke:#181818;stroke-width:1.0;"/></g><!--MD5=[698bd11cb0ce4c47dfbf287da8cc7ddd]
reverse link 4_9 to 5_21--><g id="link_4_9_5_21"><path codeLine="15" d="M1001.02,362.67 C1027.74,378.09 1058.99,397.06 1086,416 C1125.43,443.64 1167.71,478.94 1196.58,503.99 " fill="none" id="4_9-backto-5_21" style="stroke:#181818;stroke-width:1.0;"/><polygon fill="#181818" points="996.43,360.03,1002.223,367.995,1000.7597,362.5307,1006.2241,361.0674,996.43,360.03" style="stroke:#181818;stroke-width:1.0;"/></g><!--MD5=[6d57daf64176fadd231d1199b70e320f]
reverse link 4_9 to 5_22--><g id="link_4_9_5_22"><path codeLine="16" d="M939,365.56 C939,404.99 939,466.71 939,503.91 " fill="none" id="4_9-backto-5_22" style="stroke:#181818;stroke-width:1.0;"/><polygon fill="#181818" points="939,360.39,935,369.39,939,365.39,943,369.39,939,360.39" style="stroke:#181818;stroke-width:1.0;"/></g><!--MD5=[8c060171b5a7ef47a9a5f713757cbc0a]
reverse link 3_9 to 4_8--><g id="link_3_9_4_8"><path codeLine="13" d="M705.75,155.12 C667.92,194.48 607.57,257.25 571.37,294.91 " fill="none" id="3_9-backto-4_8" style="stroke:#181818;stroke-width:1.0;"/><polygon fill="#181818" points="709.34,151.39,700.2134,155.0921,705.8693,154.9892,705.9722,160.6451,709.34,151.39" style="stroke:#181818;stroke-width:1.0;"/></g><!--MD5=[4af99ed4b8ad8860c78d6183f8af1a84]
reverse link 3_9 to 4_9--><g id="link_3_9_4_9"><path codeLine="14" d="M774.25,155.12 C812.08,194.48 872.43,257.25 908.63,294.91 " fill="none" id="3_9-backto-4_9" style="stroke:#181818;stroke-width:1.0;"/><polygon fill="#181818" points="770.66,151.39,774.0278,160.6451,774.1307,154.9892,779.7866,155.0921,770.66,151.39" style="stroke:#181818;stroke-width:1.0;"/></g><!--MD5=[d98652d354bd2b58a6539cb31e8f3de6]
@startuml
!include ../l4/l4_8.pu
!include ../l4/l4_9.pu

package "中機能"{
  package "画像ビュワー"{
    object "中機能" as 3_9 #Red{
      id = 3-9
      detail = ディレクトリ表示モード
    }
  }
}

3_9 <- - 4_8
3_9 <- - 4_9
@enduml

@startuml
package "構成"{
  package "環境"{
    object "構成" as 5_3 #LightGreen{
      id = 5-3
      detail = nodejsを使用する
    }
  }
}

package "構成"{
  package "環境"{
    object "構成" as 5_1 #LightGreen{
      id = 5-1
      detail = GUIをelectronで実装する
    }
  }
}

5_1 <- - 5_3

package "構成"{
  package "環境"{
    object "構成" as 5_24 #LightGreen{
      id = 5-24
      detail = electronレンダラプロセスを実装する
    }
  }
}

5_24 <- - 5_1

package "構成"{
  package "機能"{
    object "構成" as 5_9 #LightGreen{
      id = 5-9
      detail = GUIにローディング画面を表示する
    }
  }
}

5_9 <- - 5_24

package "構成"{
  package "機能"{
    object "構成" as 5_20 #LightGreen{
      id = 5-20
      detail = 文字列配列から特定文字列が含まれる文字列を抽出する
    }
  }
}

5_20 <- - 5_3

package "小機能"{
  package "GUI"{
    object "小機能" as 4_8 #LightGreen{
      id = 4-8
      detail = ディレクトリパス階層でフィルタして表示できる
    }
  }
}

4_8 <- - 5_9
4_8 <- - 5_20

package "構成"{
  package "機能"{
    object "構成" as 5_21{
      id = 5-21
      detail = 文字列配列を昇順でソートする
    }
  }
}

5_21 <- - 5_3

package "構成"{
  package "機能"{
    object "構成" as 5_22{
      id = 5-22
      detail = 文字列配列を降順でソートする
    }
  }
}

5_22 <- - 5_3

package "小機能"{
  package "GUI"{
    object "小機能" as 4_9{
      id = 4-9
      detail = ディレクトリパス階層でソートして表示できる
    }
  }
}

4_9 <- - 5_9
4_9 <- - 5_21
4_9 <- - 5_22

package "中機能"{
  package "画像ビュワー"{
    object "中機能" as 3_9 #Red{
      id = 3-9
      detail = ディレクトリ表示モード
    }
  }
}

3_9 <- - 4_8
3_9 <- - 4_9
@enduml

PlantUML version 1.2022.12(Mon Oct 24 03:12:26 JST 2022)
(GPL source distribution)
Java Runtime: Java(TM) SE Runtime Environment
JVM: Java HotSpot(TM) 64-Bit Server VM
Default Encoding: UTF-8
Language: ja
Country: JP
--></g></svg>