<?xml version="1.0" encoding="UTF-8" standalone="no"?><svg xmlns="http://www.w3.org/2000/svg" xmlns:xlink="http://www.w3.org/1999/xlink" contentStyleType="text/css" height="573px" preserveAspectRatio="none" style="width:549px;height:573px;background:#FFFFFF;" version="1.1" viewBox="0 0 549 573" width="549px" zoomAndPan="magnify"><defs/><g><!--MD5=[e6557703c28ec013b8eadf9c41462697]
cluster 構成--><g id="cluster_構成"><path d="M8.5,6 L38.375,6 A3.75,3.75 0 0 1 40.875,8.5 L47.875,29.6094 L539.5,29.6094 A2.5,2.5 0 0 1 542,32.1094 L542,563.5 A2.5,2.5 0 0 1 539.5,566 L8.5,566 A2.5,2.5 0 0 1 6,563.5 L6,8.5 A2.5,2.5 0 0 1 8.5,6 " fill="none" style="stroke:#000000;stroke-width:1.5;"/><line style="stroke:#000000;stroke-width:1.5;" x1="6" x2="47.875" y1="29.6094" y2="29.6094"/><text fill="#000000" font-family="sans-serif" font-size="14" font-weight="bold" lengthAdjust="spacing" textLength="28.875" x="10" y="22.5332">構成</text></g><!--MD5=[ed071be72fb7e181fbc77b38300f4b00]
cluster 環境--><g id="cluster_環境"><path d="M32.5,50 L62.375,50 A3.75,3.75 0 0 1 64.875,52.5 L71.875,73.6094 L515.5,73.6094 A2.5,2.5 0 0 1 518,76.1094 L518,539.5 A2.5,2.5 0 0 1 515.5,542 L32.5,542 A2.5,2.5 0 0 1 30,539.5 L30,52.5 A2.5,2.5 0 0 1 32.5,50 " fill="none" style="stroke:#000000;stroke-width:1.5;"/><line style="stroke:#000000;stroke-width:1.5;" x1="30" x2="71.875" y1="73.6094" y2="73.6094"/><text fill="#000000" font-family="sans-serif" font-size="14" font-weight="bold" lengthAdjust="spacing" textLength="28.875" x="34" y="66.5332">環境</text></g><g id="elem_5_3"><rect fill="#90EE90" height="64.8281" style="stroke:#181818;stroke-width:0.5;" width="174" x="187" y="461"/><text fill="#000000" font-family="sans-serif" font-size="14" lengthAdjust="spacing" textLength="28" x="260" y="477.5332">構成</text><line style="stroke:#181818;stroke-width:0.5;" x1="188" x2="360" y1="482.6094" y2="482.6094"/><text fill="#000000" font-family="sans-serif" font-size="14" lengthAdjust="spacing" textLength="48" x="193" y="501.1426">id = 5-3</text><text fill="#000000" font-family="sans-serif" font-size="14" lengthAdjust="spacing" textLength="162" x="193" y="518.752">detail = nodejsを使用する</text></g><g id="elem_5_1"><rect fill="#90EE90" height="64.8281" style="stroke:#181818;stroke-width:0.5;" width="220" x="164" y="336"/><text fill="#000000" font-family="sans-serif" font-size="14" lengthAdjust="spacing" textLength="28" x="260" y="352.5332">構成</text><line style="stroke:#181818;stroke-width:0.5;" x1="165" x2="383" y1="357.6094" y2="357.6094"/><text fill="#000000" font-family="sans-serif" font-size="14" lengthAdjust="spacing" textLength="48" x="170" y="376.1426">id = 5-1</text><text fill="#000000" font-family="sans-serif" font-size="14" lengthAdjust="spacing" textLength="208" x="170" y="393.752">detail = GUIをelectronで実装する</text></g><g id="elem_5_24"><rect fill="#90EE90" height="64.8281" style="stroke:#181818;stroke-width:0.5;" width="295" x="126.5" y="211"/><text fill="#000000" font-family="sans-serif" font-size="14" lengthAdjust="spacing" textLength="28" x="260" y="227.5332">構成</text><line style="stroke:#181818;stroke-width:0.5;" x1="127.5" x2="420.5" y1="232.6094" y2="232.6094"/><text fill="#000000" font-family="sans-serif" font-size="14" lengthAdjust="spacing" textLength="56" x="132.5" y="251.1426">id = 5-24</text><text fill="#000000" font-family="sans-serif" font-size="14" lengthAdjust="spacing" textLength="283" x="132.5" y="268.752">detail = electronレンダラプロセスを実装する</text></g><g id="elem_5_10"><rect fill="#90EE90" height="64.8281" style="stroke:#181818;stroke-width:0.5;" width="456" x="46" y="86"/><text fill="#000000" font-family="sans-serif" font-size="14" lengthAdjust="spacing" textLength="28" x="260" y="102.5332">構成</text><line style="stroke:#181818;stroke-width:0.5;" x1="47" x2="501" y1="107.6094" y2="107.6094"/><text fill="#000000" font-family="sans-serif" font-size="14" lengthAdjust="spacing" textLength="56" x="52" y="126.1426">id = 5-10</text><text fill="#000000" font-family="sans-serif" font-size="14" lengthAdjust="spacing" textLength="444" x="52" y="143.752">detail = GUIでDOM内の画像移動制御をcmanObjMove_v091で実装する</text></g><!--MD5=[fc317fe41ca6eff0545457d654623905]
reverse link 5_1 to 5_3--><g id="link_5_1_5_3"><path codeLine="12" d="M274,406.46 C274,423.82 274,444.31 274,460.93 " fill="none" id="5_1-backto-5_3" style="stroke:#181818;stroke-width:1.0;"/><polygon fill="#181818" points="274,401.18,270,410.18,274,406.18,278,410.18,274,401.18" style="stroke:#181818;stroke-width:1.0;"/></g><!--MD5=[151220a8faead6bc965b12c371de67a3]
reverse link 5_24 to 5_1--><g id="link_5_24_5_1"><path codeLine="12" d="M274,281.46 C274,298.82 274,319.31 274,335.93 " fill="none" id="5_24-backto-5_1" style="stroke:#181818;stroke-width:1.0;"/><polygon fill="#181818" points="274,276.18,270,285.18,274,281.18,278,285.18,274,276.18" style="stroke:#181818;stroke-width:1.0;"/></g><!--MD5=[93b36d8a00bddd7d14af251cc6e0f84f]
reverse link 5_10 to 5_24--><g id="link_5_10_5_24"><path codeLine="12" d="M274,156.46 C274,173.82 274,194.31 274,210.93 " fill="none" id="5_10-backto-5_24" style="stroke:#181818;stroke-width:1.0;"/><polygon fill="#181818" points="274,151.18,270,160.18,274,156.18,278,160.18,274,151.18" style="stroke:#181818;stroke-width:1.0;"/></g><!--MD5=[e24efa40e9606c3e48d4a4a985400bfc]
@startuml
!include ./l5_24.pu

package "構成"{
  package "環境"{
    object "構成" as 5_10 #LightGreen{
      id = 5-10
      detail = GUIでDOM内の画像移動制御をcmanObjMove_v091で実装する
    }
  }
}

5_10 <- - 5_24
@enduml

@startuml
package "構成"{
  package "環境"{
    object "構成" as 5_3 #LightGreen{
      id = 5-3
      detail = nodejsを使用する
    }
  }
}

package "構成"{
  package "環境"{
    object "構成" as 5_1 #LightGreen{
      id = 5-1
      detail = GUIをelectronで実装する
    }
  }
}

5_1 <- - 5_3

package "構成"{
  package "環境"{
    object "構成" as 5_24 #LightGreen{
      id = 5-24
      detail = electronレンダラプロセスを実装する
    }
  }
}

5_24 <- - 5_1

package "構成"{
  package "環境"{
    object "構成" as 5_10 #LightGreen{
      id = 5-10
      detail = GUIでDOM内の画像移動制御をcmanObjMove_v091で実装する
    }
  }
}

5_10 <- - 5_24
@enduml

PlantUML version 1.2022.12(Mon Oct 24 03:12:26 JST 2022)
(GPL source distribution)
Java Runtime: Java(TM) SE Runtime Environment
JVM: Java HotSpot(TM) 64-Bit Server VM
Default Encoding: UTF-8
Language: ja
Country: JP
--></g></svg>