<?xml version="1.0" encoding="UTF-8" standalone="no"?><svg xmlns="http://www.w3.org/2000/svg" xmlns:xlink="http://www.w3.org/1999/xlink" contentStyleType="text/css" height="198px" preserveAspectRatio="none" style="width:309px;height:198px;background:#FFFFFF;" version="1.1" viewBox="0 0 309 198" width="309px" zoomAndPan="magnify"><defs/><g><!--MD5=[e6557703c28ec013b8eadf9c41462697]
cluster 構成--><g id="cluster_構成"><path d="M8.5,6 L38.375,6 A3.75,3.75 0 0 1 40.875,8.5 L47.875,29.6094 L299.5,29.6094 A2.5,2.5 0 0 1 302,32.1094 L302,188.5 A2.5,2.5 0 0 1 299.5,191 L8.5,191 A2.5,2.5 0 0 1 6,188.5 L6,8.5 A2.5,2.5 0 0 1 8.5,6 " fill="none" style="stroke:#000000;stroke-width:1.5;"/><line style="stroke:#000000;stroke-width:1.5;" x1="6" x2="47.875" y1="29.6094" y2="29.6094"/><text fill="#000000" font-family="sans-serif" font-size="14" font-weight="bold" lengthAdjust="spacing" textLength="28.875" x="10" y="22.5332">構成</text></g><!--MD5=[593c3805de571ca794a38e03b1677d75]
cluster 機能--><g id="cluster_機能"><path d="M32.5,50 L62.375,50 A3.75,3.75 0 0 1 64.875,52.5 L71.875,73.6094 L275.5,73.6094 A2.5,2.5 0 0 1 278,76.1094 L278,164.5 A2.5,2.5 0 0 1 275.5,167 L32.5,167 A2.5,2.5 0 0 1 30,164.5 L30,52.5 A2.5,2.5 0 0 1 32.5,50 " fill="none" style="stroke:#000000;stroke-width:1.5;"/><line style="stroke:#000000;stroke-width:1.5;" x1="30" x2="71.875" y1="73.6094" y2="73.6094"/><text fill="#000000" font-family="sans-serif" font-size="14" font-weight="bold" lengthAdjust="spacing" textLength="28.875" x="34" y="66.5332">機能</text></g><g id="elem_5_27"><rect fill="#FFA500" height="64.8281" style="stroke:#181818;stroke-width:0.5;" width="216" x="46" y="86"/><text fill="#000000" font-family="sans-serif" font-size="14" lengthAdjust="spacing" textLength="28" x="140" y="102.5332">構成</text><line style="stroke:#181818;stroke-width:0.5;" x1="47" x2="261" y1="107.6094" y2="107.6094"/><text fill="#000000" font-family="sans-serif" font-size="14" lengthAdjust="spacing" textLength="56" x="52" y="126.1426">id = 5-27</text><text fill="#000000" font-family="sans-serif" font-size="14" lengthAdjust="spacing" textLength="204" x="52" y="143.752">detail = ウィンドウを最大化する</text></g><!--MD5=[681e62af13a437699c13016d89fd03f6]
@startuml
' !include ./l5_23.pu

package "構成"{
  package "機能"{
    object "構成" as 5_27 #Orange{
      id = 5-27
      detail = ウィンドウを最大化する
    }
  }
}

' 5_27 <- - 5_23
@enduml

@startuml

package "構成"{
  package "機能"{
    object "構成" as 5_27 #Orange{
      id = 5-27
      detail = ウィンドウを最大化する
    }
  }
}

@enduml

PlantUML version 1.2022.12(Mon Oct 24 03:12:26 JST 2022)
(GPL source distribution)
Java Runtime: Java(TM) SE Runtime Environment
JVM: Java HotSpot(TM) 64-Bit Server VM
Default Encoding: UTF-8
Language: ja
Country: JP
--></g></svg>